<svg xmlns="http://www.w3.org/2000/svg" xmlns:xlink="http://www.w3.org/1999/xlink" width="376" height="376" viewBox="0 0 376 376">
  <defs>
    <clipPath id="clip-path">
      <rect id="Прямоугольник_3" data-name="Прямоугольник 3" width="376" height="376" fill="none"/>
    </clipPath>
  </defs>
  <g id="Повторить_сетку_1" data-name="Повторить сетку 1" clip-path="url(#clip-path)">
    <g id="Сгруппировать_86" data-name="Сгруппировать 86" transform="translate(-431 -317)">
      <circle id="Эллипс_4" data-name="Эллипс 4" cx="12" cy="12" r="12" transform="translate(431 317)" fill="#cde87f"/>
    </g>
    <g id="Сгруппировать_87" data-name="Сгруппировать 87" transform="translate(-387 -317)">
      <circle id="Эллипс_4-2" data-name="Эллипс 4" cx="12" cy="12" r="12" transform="translate(431 317)" fill="#cde87f"/>
    </g>
    <g id="Сгруппировать_88" data-name="Сгруппировать 88" transform="translate(-343 -317)">
      <circle id="Эллипс_4-3" data-name="Эллипс 4" cx="12" cy="12" r="12" transform="translate(431 317)" fill="#cde87f"/>
    </g>
    <g id="Сгруппировать_89" data-name="Сгруппировать 89" transform="translate(-299 -317)">
      <circle id="Эллипс_4-4" data-name="Эллипс 4" cx="12" cy="12" r="12" transform="translate(431 317)" fill="#cde87f"/>
    </g>
    <g id="Сгруппировать_90" data-name="Сгруппировать 90" transform="translate(-255 -317)">
      <circle id="Эллипс_4-5" data-name="Эллипс 4" cx="12" cy="12" r="12" transform="translate(431 317)" fill="#cde87f"/>
    </g>
    <g id="Сгруппировать_91" data-name="Сгруппировать 91" transform="translate(-211 -317)">
      <circle id="Эллипс_4-6" data-name="Эллипс 4" cx="12" cy="12" r="12" transform="translate(431 317)" fill="#cde87f"/>
    </g>
    <g id="Сгруппировать_92" data-name="Сгруппировать 92" transform="translate(-167 -317)">
      <circle id="Эллипс_4-7" data-name="Эллипс 4" cx="12" cy="12" r="12" transform="translate(431 317)" fill="#cde87f"/>
    </g>
    <g id="Сгруппировать_93" data-name="Сгруппировать 93" transform="translate(-123 -317)">
      <circle id="Эллипс_4-8" data-name="Эллипс 4" cx="12" cy="12" r="12" transform="translate(431 317)" fill="#cde87f"/>
    </g>
    <g id="Сгруппировать_94" data-name="Сгруппировать 94" transform="translate(-79 -317)">
      <circle id="Эллипс_4-9" data-name="Эллипс 4" cx="12" cy="12" r="12" transform="translate(431 317)" fill="#cde87f"/>
    </g>
    <g id="Сгруппировать_95" data-name="Сгруппировать 95" transform="translate(-431 -273)">
      <circle id="Эллипс_4-10" data-name="Эллипс 4" cx="12" cy="12" r="12" transform="translate(431 317)" fill="#cde87f"/>
    </g>
    <g id="Сгруппировать_96" data-name="Сгруппировать 96" transform="translate(-387 -273)">
      <circle id="Эллипс_4-11" data-name="Эллипс 4" cx="12" cy="12" r="12" transform="translate(431 317)" fill="#cde87f"/>
    </g>
    <g id="Сгруппировать_97" data-name="Сгруппировать 97" transform="translate(-343 -273)">
      <circle id="Эллипс_4-12" data-name="Эллипс 4" cx="12" cy="12" r="12" transform="translate(431 317)" fill="#cde87f"/>
    </g>
    <g id="Сгруппировать_98" data-name="Сгруппировать 98" transform="translate(-299 -273)">
      <circle id="Эллипс_4-13" data-name="Эллипс 4" cx="12" cy="12" r="12" transform="translate(431 317)" fill="#cde87f"/>
    </g>
    <g id="Сгруппировать_99" data-name="Сгруппировать 99" transform="translate(-255 -273)">
      <circle id="Эллипс_4-14" data-name="Эллипс 4" cx="12" cy="12" r="12" transform="translate(431 317)" fill="#cde87f"/>
    </g>
    <g id="Сгруппировать_100" data-name="Сгруппировать 100" transform="translate(-211 -273)">
      <circle id="Эллипс_4-15" data-name="Эллипс 4" cx="12" cy="12" r="12" transform="translate(431 317)" fill="#cde87f"/>
    </g>
    <g id="Сгруппировать_101" data-name="Сгруппировать 101" transform="translate(-167 -273)">
      <circle id="Эллипс_4-16" data-name="Эллипс 4" cx="12" cy="12" r="12" transform="translate(431 317)" fill="#cde87f"/>
    </g>
    <g id="Сгруппировать_102" data-name="Сгруппировать 102" transform="translate(-123 -273)">
      <circle id="Эллипс_4-17" data-name="Эллипс 4" cx="12" cy="12" r="12" transform="translate(431 317)" fill="#cde87f"/>
    </g>
    <g id="Сгруппировать_103" data-name="Сгруппировать 103" transform="translate(-79 -273)">
      <circle id="Эллипс_4-18" data-name="Эллипс 4" cx="12" cy="12" r="12" transform="translate(431 317)" fill="#cde87f"/>
    </g>
    <g id="Сгруппировать_104" data-name="Сгруппировать 104" transform="translate(-431 -229)">
      <circle id="Эллипс_4-19" data-name="Эллипс 4" cx="12" cy="12" r="12" transform="translate(431 317)" fill="#cde87f"/>
    </g>
    <g id="Сгруппировать_105" data-name="Сгруппировать 105" transform="translate(-387 -229)">
      <circle id="Эллипс_4-20" data-name="Эллипс 4" cx="12" cy="12" r="12" transform="translate(431 317)" fill="#cde87f"/>
    </g>
    <g id="Сгруппировать_106" data-name="Сгруппировать 106" transform="translate(-343 -229)">
      <circle id="Эллипс_4-21" data-name="Эллипс 4" cx="12" cy="12" r="12" transform="translate(431 317)" fill="#cde87f"/>
    </g>
    <g id="Сгруппировать_107" data-name="Сгруппировать 107" transform="translate(-299 -229)">
      <circle id="Эллипс_4-22" data-name="Эллипс 4" cx="12" cy="12" r="12" transform="translate(431 317)" fill="#cde87f"/>
    </g>
    <g id="Сгруппировать_108" data-name="Сгруппировать 108" transform="translate(-255 -229)">
      <circle id="Эллипс_4-23" data-name="Эллипс 4" cx="12" cy="12" r="12" transform="translate(431 317)" fill="#cde87f"/>
    </g>
    <g id="Сгруппировать_109" data-name="Сгруппировать 109" transform="translate(-211 -229)">
      <circle id="Эллипс_4-24" data-name="Эллипс 4" cx="12" cy="12" r="12" transform="translate(431 317)" fill="#cde87f"/>
    </g>
    <g id="Сгруппировать_110" data-name="Сгруппировать 110" transform="translate(-167 -229)">
      <circle id="Эллипс_4-25" data-name="Эллипс 4" cx="12" cy="12" r="12" transform="translate(431 317)" fill="#cde87f"/>
    </g>
    <g id="Сгруппировать_111" data-name="Сгруппировать 111" transform="translate(-123 -229)">
      <circle id="Эллипс_4-26" data-name="Эллипс 4" cx="12" cy="12" r="12" transform="translate(431 317)" fill="#cde87f"/>
    </g>
    <g id="Сгруппировать_112" data-name="Сгруппировать 112" transform="translate(-79 -229)">
      <circle id="Эллипс_4-27" data-name="Эллипс 4" cx="12" cy="12" r="12" transform="translate(431 317)" fill="#cde87f"/>
    </g>
    <g id="Сгруппировать_113" data-name="Сгруппировать 113" transform="translate(-431 -185)">
      <circle id="Эллипс_4-28" data-name="Эллипс 4" cx="12" cy="12" r="12" transform="translate(431 317)" fill="#cde87f"/>
    </g>
    <g id="Сгруппировать_114" data-name="Сгруппировать 114" transform="translate(-387 -185)">
      <circle id="Эллипс_4-29" data-name="Эллипс 4" cx="12" cy="12" r="12" transform="translate(431 317)" fill="#cde87f"/>
    </g>
    <g id="Сгруппировать_115" data-name="Сгруппировать 115" transform="translate(-343 -185)">
      <circle id="Эллипс_4-30" data-name="Эллипс 4" cx="12" cy="12" r="12" transform="translate(431 317)" fill="#cde87f"/>
    </g>
    <g id="Сгруппировать_116" data-name="Сгруппировать 116" transform="translate(-299 -185)">
      <circle id="Эллипс_4-31" data-name="Эллипс 4" cx="12" cy="12" r="12" transform="translate(431 317)" fill="#cde87f"/>
    </g>
    <g id="Сгруппировать_117" data-name="Сгруппировать 117" transform="translate(-255 -185)">
      <circle id="Эллипс_4-32" data-name="Эллипс 4" cx="12" cy="12" r="12" transform="translate(431 317)" fill="#cde87f"/>
    </g>
    <g id="Сгруппировать_118" data-name="Сгруппировать 118" transform="translate(-211 -185)">
      <circle id="Эллипс_4-33" data-name="Эллипс 4" cx="12" cy="12" r="12" transform="translate(431 317)" fill="#cde87f"/>
    </g>
    <g id="Сгруппировать_119" data-name="Сгруппировать 119" transform="translate(-167 -185)">
      <circle id="Эллипс_4-34" data-name="Эллипс 4" cx="12" cy="12" r="12" transform="translate(431 317)" fill="#cde87f"/>
    </g>
    <g id="Сгруппировать_120" data-name="Сгруппировать 120" transform="translate(-123 -185)">
      <circle id="Эллипс_4-35" data-name="Эллипс 4" cx="12" cy="12" r="12" transform="translate(431 317)" fill="#cde87f"/>
    </g>
    <g id="Сгруппировать_121" data-name="Сгруппировать 121" transform="translate(-79 -185)">
      <circle id="Эллипс_4-36" data-name="Эллипс 4" cx="12" cy="12" r="12" transform="translate(431 317)" fill="#cde87f"/>
    </g>
    <g id="Сгруппировать_122" data-name="Сгруппировать 122" transform="translate(-431 -141)">
      <circle id="Эллипс_4-37" data-name="Эллипс 4" cx="12" cy="12" r="12" transform="translate(431 317)" fill="#cde87f"/>
    </g>
    <g id="Сгруппировать_123" data-name="Сгруппировать 123" transform="translate(-387 -141)">
      <circle id="Эллипс_4-38" data-name="Эллипс 4" cx="12" cy="12" r="12" transform="translate(431 317)" fill="#cde87f"/>
    </g>
    <g id="Сгруппировать_124" data-name="Сгруппировать 124" transform="translate(-343 -141)">
      <circle id="Эллипс_4-39" data-name="Эллипс 4" cx="12" cy="12" r="12" transform="translate(431 317)" fill="#cde87f"/>
    </g>
    <g id="Сгруппировать_125" data-name="Сгруппировать 125" transform="translate(-299 -141)">
      <circle id="Эллипс_4-40" data-name="Эллипс 4" cx="12" cy="12" r="12" transform="translate(431 317)" fill="#cde87f"/>
    </g>
    <g id="Сгруппировать_126" data-name="Сгруппировать 126" transform="translate(-255 -141)">
      <circle id="Эллипс_4-41" data-name="Эллипс 4" cx="12" cy="12" r="12" transform="translate(431 317)" fill="#cde87f"/>
    </g>
    <g id="Сгруппировать_127" data-name="Сгруппировать 127" transform="translate(-211 -141)">
      <circle id="Эллипс_4-42" data-name="Эллипс 4" cx="12" cy="12" r="12" transform="translate(431 317)" fill="#cde87f"/>
    </g>
    <g id="Сгруппировать_128" data-name="Сгруппировать 128" transform="translate(-167 -141)">
      <circle id="Эллипс_4-43" data-name="Эллипс 4" cx="12" cy="12" r="12" transform="translate(431 317)" fill="#cde87f"/>
    </g>
    <g id="Сгруппировать_129" data-name="Сгруппировать 129" transform="translate(-123 -141)">
      <circle id="Эллипс_4-44" data-name="Эллипс 4" cx="12" cy="12" r="12" transform="translate(431 317)" fill="#cde87f"/>
    </g>
    <g id="Сгруппировать_130" data-name="Сгруппировать 130" transform="translate(-79 -141)">
      <circle id="Эллипс_4-45" data-name="Эллипс 4" cx="12" cy="12" r="12" transform="translate(431 317)" fill="#cde87f"/>
    </g>
    <g id="Сгруппировать_131" data-name="Сгруппировать 131" transform="translate(-431 -97)">
      <circle id="Эллипс_4-46" data-name="Эллипс 4" cx="12" cy="12" r="12" transform="translate(431 317)" fill="#cde87f"/>
    </g>
    <g id="Сгруппировать_132" data-name="Сгруппировать 132" transform="translate(-387 -97)">
      <circle id="Эллипс_4-47" data-name="Эллипс 4" cx="12" cy="12" r="12" transform="translate(431 317)" fill="#cde87f"/>
    </g>
    <g id="Сгруппировать_133" data-name="Сгруппировать 133" transform="translate(-343 -97)">
      <circle id="Эллипс_4-48" data-name="Эллипс 4" cx="12" cy="12" r="12" transform="translate(431 317)" fill="#cde87f"/>
    </g>
    <g id="Сгруппировать_134" data-name="Сгруппировать 134" transform="translate(-299 -97)">
      <circle id="Эллипс_4-49" data-name="Эллипс 4" cx="12" cy="12" r="12" transform="translate(431 317)" fill="#cde87f"/>
    </g>
    <g id="Сгруппировать_135" data-name="Сгруппировать 135" transform="translate(-255 -97)">
      <circle id="Эллипс_4-50" data-name="Эллипс 4" cx="12" cy="12" r="12" transform="translate(431 317)" fill="#cde87f"/>
    </g>
    <g id="Сгруппировать_136" data-name="Сгруппировать 136" transform="translate(-211 -97)">
      <circle id="Эллипс_4-51" data-name="Эллипс 4" cx="12" cy="12" r="12" transform="translate(431 317)" fill="#cde87f"/>
    </g>
    <g id="Сгруппировать_137" data-name="Сгруппировать 137" transform="translate(-167 -97)">
      <circle id="Эллипс_4-52" data-name="Эллипс 4" cx="12" cy="12" r="12" transform="translate(431 317)" fill="#cde87f"/>
    </g>
    <g id="Сгруппировать_138" data-name="Сгруппировать 138" transform="translate(-123 -97)">
      <circle id="Эллипс_4-53" data-name="Эллипс 4" cx="12" cy="12" r="12" transform="translate(431 317)" fill="#cde87f"/>
    </g>
    <g id="Сгруппировать_139" data-name="Сгруппировать 139" transform="translate(-79 -97)">
      <circle id="Эллипс_4-54" data-name="Эллипс 4" cx="12" cy="12" r="12" transform="translate(431 317)" fill="#cde87f"/>
    </g>
    <g id="Сгруппировать_140" data-name="Сгруппировать 140" transform="translate(-431 -53)">
      <circle id="Эллипс_4-55" data-name="Эллипс 4" cx="12" cy="12" r="12" transform="translate(431 317)" fill="#cde87f"/>
    </g>
    <g id="Сгруппировать_141" data-name="Сгруппировать 141" transform="translate(-387 -53)">
      <circle id="Эллипс_4-56" data-name="Эллипс 4" cx="12" cy="12" r="12" transform="translate(431 317)" fill="#cde87f"/>
    </g>
    <g id="Сгруппировать_142" data-name="Сгруппировать 142" transform="translate(-343 -53)">
      <circle id="Эллипс_4-57" data-name="Эллипс 4" cx="12" cy="12" r="12" transform="translate(431 317)" fill="#cde87f"/>
    </g>
    <g id="Сгруппировать_143" data-name="Сгруппировать 143" transform="translate(-299 -53)">
      <circle id="Эллипс_4-58" data-name="Эллипс 4" cx="12" cy="12" r="12" transform="translate(431 317)" fill="#cde87f"/>
    </g>
    <g id="Сгруппировать_144" data-name="Сгруппировать 144" transform="translate(-255 -53)">
      <circle id="Эллипс_4-59" data-name="Эллипс 4" cx="12" cy="12" r="12" transform="translate(431 317)" fill="#cde87f"/>
    </g>
    <g id="Сгруппировать_145" data-name="Сгруппировать 145" transform="translate(-211 -53)">
      <circle id="Эллипс_4-60" data-name="Эллипс 4" cx="12" cy="12" r="12" transform="translate(431 317)" fill="#cde87f"/>
    </g>
    <g id="Сгруппировать_146" data-name="Сгруппировать 146" transform="translate(-167 -53)">
      <circle id="Эллипс_4-61" data-name="Эллипс 4" cx="12" cy="12" r="12" transform="translate(431 317)" fill="#cde87f"/>
    </g>
    <g id="Сгруппировать_147" data-name="Сгруппировать 147" transform="translate(-123 -53)">
      <circle id="Эллипс_4-62" data-name="Эллипс 4" cx="12" cy="12" r="12" transform="translate(431 317)" fill="#cde87f"/>
    </g>
    <g id="Сгруппировать_148" data-name="Сгруппировать 148" transform="translate(-79 -53)">
      <circle id="Эллипс_4-63" data-name="Эллипс 4" cx="12" cy="12" r="12" transform="translate(431 317)" fill="#cde87f"/>
    </g>
    <g id="Сгруппировать_149" data-name="Сгруппировать 149" transform="translate(-431 -9)">
      <circle id="Эллипс_4-64" data-name="Эллипс 4" cx="12" cy="12" r="12" transform="translate(431 317)" fill="#cde87f"/>
    </g>
    <g id="Сгруппировать_150" data-name="Сгруппировать 150" transform="translate(-387 -9)">
      <circle id="Эллипс_4-65" data-name="Эллипс 4" cx="12" cy="12" r="12" transform="translate(431 317)" fill="#cde87f"/>
    </g>
    <g id="Сгруппировать_151" data-name="Сгруппировать 151" transform="translate(-343 -9)">
      <circle id="Эллипс_4-66" data-name="Эллипс 4" cx="12" cy="12" r="12" transform="translate(431 317)" fill="#cde87f"/>
    </g>
    <g id="Сгруппировать_152" data-name="Сгруппировать 152" transform="translate(-299 -9)">
      <circle id="Эллипс_4-67" data-name="Эллипс 4" cx="12" cy="12" r="12" transform="translate(431 317)" fill="#cde87f"/>
    </g>
    <g id="Сгруппировать_153" data-name="Сгруппировать 153" transform="translate(-255 -9)">
      <circle id="Эллипс_4-68" data-name="Эллипс 4" cx="12" cy="12" r="12" transform="translate(431 317)" fill="#cde87f"/>
    </g>
    <g id="Сгруппировать_154" data-name="Сгруппировать 154" transform="translate(-211 -9)">
      <circle id="Эллипс_4-69" data-name="Эллипс 4" cx="12" cy="12" r="12" transform="translate(431 317)" fill="#cde87f"/>
    </g>
    <g id="Сгруппировать_155" data-name="Сгруппировать 155" transform="translate(-167 -9)">
      <circle id="Эллипс_4-70" data-name="Эллипс 4" cx="12" cy="12" r="12" transform="translate(431 317)" fill="#cde87f"/>
    </g>
    <g id="Сгруппировать_156" data-name="Сгруппировать 156" transform="translate(-123 -9)">
      <circle id="Эллипс_4-71" data-name="Эллипс 4" cx="12" cy="12" r="12" transform="translate(431 317)" fill="#cde87f"/>
    </g>
    <g id="Сгруппировать_157" data-name="Сгруппировать 157" transform="translate(-79 -9)">
      <circle id="Эллипс_4-72" data-name="Эллипс 4" cx="12" cy="12" r="12" transform="translate(431 317)" fill="#cde87f"/>
    </g>
    <g id="Сгруппировать_158" data-name="Сгруппировать 158" transform="translate(-431 35)">
      <circle id="Эллипс_4-73" data-name="Эллипс 4" cx="12" cy="12" r="12" transform="translate(431 317)" fill="#cde87f"/>
    </g>
    <g id="Сгруппировать_159" data-name="Сгруппировать 159" transform="translate(-387 35)">
      <circle id="Эллипс_4-74" data-name="Эллипс 4" cx="12" cy="12" r="12" transform="translate(431 317)" fill="#cde87f"/>
    </g>
    <g id="Сгруппировать_160" data-name="Сгруппировать 160" transform="translate(-343 35)">
      <circle id="Эллипс_4-75" data-name="Эллипс 4" cx="12" cy="12" r="12" transform="translate(431 317)" fill="#cde87f"/>
    </g>
    <g id="Сгруппировать_161" data-name="Сгруппировать 161" transform="translate(-299 35)">
      <circle id="Эллипс_4-76" data-name="Эллипс 4" cx="12" cy="12" r="12" transform="translate(431 317)" fill="#cde87f"/>
    </g>
    <g id="Сгруппировать_162" data-name="Сгруппировать 162" transform="translate(-255 35)">
      <circle id="Эллипс_4-77" data-name="Эллипс 4" cx="12" cy="12" r="12" transform="translate(431 317)" fill="#cde87f"/>
    </g>
    <g id="Сгруппировать_163" data-name="Сгруппировать 163" transform="translate(-211 35)">
      <circle id="Эллипс_4-78" data-name="Эллипс 4" cx="12" cy="12" r="12" transform="translate(431 317)" fill="#cde87f"/>
    </g>
    <g id="Сгруппировать_164" data-name="Сгруппировать 164" transform="translate(-167 35)">
      <circle id="Эллипс_4-79" data-name="Эллипс 4" cx="12" cy="12" r="12" transform="translate(431 317)" fill="#cde87f"/>
    </g>
    <g id="Сгруппировать_165" data-name="Сгруппировать 165" transform="translate(-123 35)">
      <circle id="Эллипс_4-80" data-name="Эллипс 4" cx="12" cy="12" r="12" transform="translate(431 317)" fill="#cde87f"/>
    </g>
    <g id="Сгруппировать_166" data-name="Сгруппировать 166" transform="translate(-79 35)">
      <circle id="Эллипс_4-81" data-name="Эллипс 4" cx="12" cy="12" r="12" transform="translate(431 317)" fill="#cde87f"/>
    </g>
  </g>
</svg>
