<svg xmlns="http://www.w3.org/2000/svg" xmlns:xlink="http://www.w3.org/1999/xlink" width="376" height="376" viewBox="0 0 376 376">
  <defs>
    <clipPath id="clip-path">
      <rect id="Прямоугольник_1" data-name="Прямоугольник 1" width="376" height="376" fill="none"/>
    </clipPath>
  </defs>
  <g id="Повторить_сетку_1" data-name="Повторить сетку 1" clip-path="url(#clip-path)">
    <g id="Сгруппировать_4" data-name="Сгруппировать 4" transform="translate(-431 -317)">
      <circle id="Эллипс_4" data-name="Эллипс 4" cx="12" cy="12" r="12" transform="translate(431 317)" fill="rgba(205,199,251,0.58)"/>
    </g>
    <g id="Сгруппировать_5" data-name="Сгруппировать 5" transform="translate(-387 -317)">
      <circle id="Эллипс_4-2" data-name="Эллипс 4" cx="12" cy="12" r="12" transform="translate(431 317)" fill="rgba(205,199,251,0.58)"/>
    </g>
    <g id="Сгруппировать_6" data-name="Сгруппировать 6" transform="translate(-343 -317)">
      <circle id="Эллипс_4-3" data-name="Эллипс 4" cx="12" cy="12" r="12" transform="translate(431 317)" fill="rgba(205,199,251,0.58)"/>
    </g>
    <g id="Сгруппировать_7" data-name="Сгруппировать 7" transform="translate(-299 -317)">
      <circle id="Эллипс_4-4" data-name="Эллипс 4" cx="12" cy="12" r="12" transform="translate(431 317)" fill="rgba(205,199,251,0.58)"/>
    </g>
    <g id="Сгруппировать_8" data-name="Сгруппировать 8" transform="translate(-255 -317)">
      <circle id="Эллипс_4-5" data-name="Эллипс 4" cx="12" cy="12" r="12" transform="translate(431 317)" fill="rgba(205,199,251,0.58)"/>
    </g>
    <g id="Сгруппировать_9" data-name="Сгруппировать 9" transform="translate(-211 -317)">
      <circle id="Эллипс_4-6" data-name="Эллипс 4" cx="12" cy="12" r="12" transform="translate(431 317)" fill="rgba(205,199,251,0.58)"/>
    </g>
    <g id="Сгруппировать_10" data-name="Сгруппировать 10" transform="translate(-167 -317)">
      <circle id="Эллипс_4-7" data-name="Эллипс 4" cx="12" cy="12" r="12" transform="translate(431 317)" fill="rgba(205,199,251,0.58)"/>
    </g>
    <g id="Сгруппировать_11" data-name="Сгруппировать 11" transform="translate(-123 -317)">
      <circle id="Эллипс_4-8" data-name="Эллипс 4" cx="12" cy="12" r="12" transform="translate(431 317)" fill="rgba(205,199,251,0.58)"/>
    </g>
    <g id="Сгруппировать_12" data-name="Сгруппировать 12" transform="translate(-79 -317)">
      <circle id="Эллипс_4-9" data-name="Эллипс 4" cx="12" cy="12" r="12" transform="translate(431 317)" fill="rgba(205,199,251,0.58)"/>
    </g>
    <g id="Сгруппировать_13" data-name="Сгруппировать 13" transform="translate(-431 -273)">
      <circle id="Эллипс_4-10" data-name="Эллипс 4" cx="12" cy="12" r="12" transform="translate(431 317)" fill="rgba(205,199,251,0.58)"/>
    </g>
    <g id="Сгруппировать_14" data-name="Сгруппировать 14" transform="translate(-387 -273)">
      <circle id="Эллипс_4-11" data-name="Эллипс 4" cx="12" cy="12" r="12" transform="translate(431 317)" fill="rgba(205,199,251,0.58)"/>
    </g>
    <g id="Сгруппировать_15" data-name="Сгруппировать 15" transform="translate(-343 -273)">
      <circle id="Эллипс_4-12" data-name="Эллипс 4" cx="12" cy="12" r="12" transform="translate(431 317)" fill="rgba(205,199,251,0.58)"/>
    </g>
    <g id="Сгруппировать_16" data-name="Сгруппировать 16" transform="translate(-299 -273)">
      <circle id="Эллипс_4-13" data-name="Эллипс 4" cx="12" cy="12" r="12" transform="translate(431 317)" fill="rgba(205,199,251,0.58)"/>
    </g>
    <g id="Сгруппировать_17" data-name="Сгруппировать 17" transform="translate(-255 -273)">
      <circle id="Эллипс_4-14" data-name="Эллипс 4" cx="12" cy="12" r="12" transform="translate(431 317)" fill="rgba(205,199,251,0.58)"/>
    </g>
    <g id="Сгруппировать_18" data-name="Сгруппировать 18" transform="translate(-211 -273)">
      <circle id="Эллипс_4-15" data-name="Эллипс 4" cx="12" cy="12" r="12" transform="translate(431 317)" fill="rgba(205,199,251,0.58)"/>
    </g>
    <g id="Сгруппировать_19" data-name="Сгруппировать 19" transform="translate(-167 -273)">
      <circle id="Эллипс_4-16" data-name="Эллипс 4" cx="12" cy="12" r="12" transform="translate(431 317)" fill="rgba(205,199,251,0.58)"/>
    </g>
    <g id="Сгруппировать_20" data-name="Сгруппировать 20" transform="translate(-123 -273)">
      <circle id="Эллипс_4-17" data-name="Эллипс 4" cx="12" cy="12" r="12" transform="translate(431 317)" fill="rgba(205,199,251,0.58)"/>
    </g>
    <g id="Сгруппировать_21" data-name="Сгруппировать 21" transform="translate(-79 -273)">
      <circle id="Эллипс_4-18" data-name="Эллипс 4" cx="12" cy="12" r="12" transform="translate(431 317)" fill="rgba(205,199,251,0.58)"/>
    </g>
    <g id="Сгруппировать_22" data-name="Сгруппировать 22" transform="translate(-431 -229)">
      <circle id="Эллипс_4-19" data-name="Эллипс 4" cx="12" cy="12" r="12" transform="translate(431 317)" fill="rgba(205,199,251,0.58)"/>
    </g>
    <g id="Сгруппировать_23" data-name="Сгруппировать 23" transform="translate(-387 -229)">
      <circle id="Эллипс_4-20" data-name="Эллипс 4" cx="12" cy="12" r="12" transform="translate(431 317)" fill="rgba(205,199,251,0.58)"/>
    </g>
    <g id="Сгруппировать_24" data-name="Сгруппировать 24" transform="translate(-343 -229)">
      <circle id="Эллипс_4-21" data-name="Эллипс 4" cx="12" cy="12" r="12" transform="translate(431 317)" fill="rgba(205,199,251,0.58)"/>
    </g>
    <g id="Сгруппировать_25" data-name="Сгруппировать 25" transform="translate(-299 -229)">
      <circle id="Эллипс_4-22" data-name="Эллипс 4" cx="12" cy="12" r="12" transform="translate(431 317)" fill="rgba(205,199,251,0.58)"/>
    </g>
    <g id="Сгруппировать_26" data-name="Сгруппировать 26" transform="translate(-255 -229)">
      <circle id="Эллипс_4-23" data-name="Эллипс 4" cx="12" cy="12" r="12" transform="translate(431 317)" fill="rgba(205,199,251,0.58)"/>
    </g>
    <g id="Сгруппировать_27" data-name="Сгруппировать 27" transform="translate(-211 -229)">
      <circle id="Эллипс_4-24" data-name="Эллипс 4" cx="12" cy="12" r="12" transform="translate(431 317)" fill="rgba(205,199,251,0.58)"/>
    </g>
    <g id="Сгруппировать_28" data-name="Сгруппировать 28" transform="translate(-167 -229)">
      <circle id="Эллипс_4-25" data-name="Эллипс 4" cx="12" cy="12" r="12" transform="translate(431 317)" fill="rgba(205,199,251,0.58)"/>
    </g>
    <g id="Сгруппировать_29" data-name="Сгруппировать 29" transform="translate(-123 -229)">
      <circle id="Эллипс_4-26" data-name="Эллипс 4" cx="12" cy="12" r="12" transform="translate(431 317)" fill="rgba(205,199,251,0.58)"/>
    </g>
    <g id="Сгруппировать_30" data-name="Сгруппировать 30" transform="translate(-79 -229)">
      <circle id="Эллипс_4-27" data-name="Эллипс 4" cx="12" cy="12" r="12" transform="translate(431 317)" fill="rgba(205,199,251,0.58)"/>
    </g>
    <g id="Сгруппировать_31" data-name="Сгруппировать 31" transform="translate(-431 -185)">
      <circle id="Эллипс_4-28" data-name="Эллипс 4" cx="12" cy="12" r="12" transform="translate(431 317)" fill="rgba(205,199,251,0.58)"/>
    </g>
    <g id="Сгруппировать_32" data-name="Сгруппировать 32" transform="translate(-387 -185)">
      <circle id="Эллипс_4-29" data-name="Эллипс 4" cx="12" cy="12" r="12" transform="translate(431 317)" fill="rgba(205,199,251,0.58)"/>
    </g>
    <g id="Сгруппировать_33" data-name="Сгруппировать 33" transform="translate(-343 -185)">
      <circle id="Эллипс_4-30" data-name="Эллипс 4" cx="12" cy="12" r="12" transform="translate(431 317)" fill="rgba(205,199,251,0.58)"/>
    </g>
    <g id="Сгруппировать_34" data-name="Сгруппировать 34" transform="translate(-299 -185)">
      <circle id="Эллипс_4-31" data-name="Эллипс 4" cx="12" cy="12" r="12" transform="translate(431 317)" fill="rgba(205,199,251,0.58)"/>
    </g>
    <g id="Сгруппировать_35" data-name="Сгруппировать 35" transform="translate(-255 -185)">
      <circle id="Эллипс_4-32" data-name="Эллипс 4" cx="12" cy="12" r="12" transform="translate(431 317)" fill="rgba(205,199,251,0.58)"/>
    </g>
    <g id="Сгруппировать_36" data-name="Сгруппировать 36" transform="translate(-211 -185)">
      <circle id="Эллипс_4-33" data-name="Эллипс 4" cx="12" cy="12" r="12" transform="translate(431 317)" fill="rgba(205,199,251,0.58)"/>
    </g>
    <g id="Сгруппировать_37" data-name="Сгруппировать 37" transform="translate(-167 -185)">
      <circle id="Эллипс_4-34" data-name="Эллипс 4" cx="12" cy="12" r="12" transform="translate(431 317)" fill="rgba(205,199,251,0.58)"/>
    </g>
    <g id="Сгруппировать_38" data-name="Сгруппировать 38" transform="translate(-123 -185)">
      <circle id="Эллипс_4-35" data-name="Эллипс 4" cx="12" cy="12" r="12" transform="translate(431 317)" fill="rgba(205,199,251,0.58)"/>
    </g>
    <g id="Сгруппировать_39" data-name="Сгруппировать 39" transform="translate(-79 -185)">
      <circle id="Эллипс_4-36" data-name="Эллипс 4" cx="12" cy="12" r="12" transform="translate(431 317)" fill="rgba(205,199,251,0.58)"/>
    </g>
    <g id="Сгруппировать_40" data-name="Сгруппировать 40" transform="translate(-431 -141)">
      <circle id="Эллипс_4-37" data-name="Эллипс 4" cx="12" cy="12" r="12" transform="translate(431 317)" fill="rgba(205,199,251,0.58)"/>
    </g>
    <g id="Сгруппировать_41" data-name="Сгруппировать 41" transform="translate(-387 -141)">
      <circle id="Эллипс_4-38" data-name="Эллипс 4" cx="12" cy="12" r="12" transform="translate(431 317)" fill="rgba(205,199,251,0.58)"/>
    </g>
    <g id="Сгруппировать_42" data-name="Сгруппировать 42" transform="translate(-343 -141)">
      <circle id="Эллипс_4-39" data-name="Эллипс 4" cx="12" cy="12" r="12" transform="translate(431 317)" fill="rgba(205,199,251,0.58)"/>
    </g>
    <g id="Сгруппировать_43" data-name="Сгруппировать 43" transform="translate(-299 -141)">
      <circle id="Эллипс_4-40" data-name="Эллипс 4" cx="12" cy="12" r="12" transform="translate(431 317)" fill="rgba(205,199,251,0.58)"/>
    </g>
    <g id="Сгруппировать_44" data-name="Сгруппировать 44" transform="translate(-255 -141)">
      <circle id="Эллипс_4-41" data-name="Эллипс 4" cx="12" cy="12" r="12" transform="translate(431 317)" fill="rgba(205,199,251,0.58)"/>
    </g>
    <g id="Сгруппировать_45" data-name="Сгруппировать 45" transform="translate(-211 -141)">
      <circle id="Эллипс_4-42" data-name="Эллипс 4" cx="12" cy="12" r="12" transform="translate(431 317)" fill="rgba(205,199,251,0.58)"/>
    </g>
    <g id="Сгруппировать_46" data-name="Сгруппировать 46" transform="translate(-167 -141)">
      <circle id="Эллипс_4-43" data-name="Эллипс 4" cx="12" cy="12" r="12" transform="translate(431 317)" fill="rgba(205,199,251,0.58)"/>
    </g>
    <g id="Сгруппировать_47" data-name="Сгруппировать 47" transform="translate(-123 -141)">
      <circle id="Эллипс_4-44" data-name="Эллипс 4" cx="12" cy="12" r="12" transform="translate(431 317)" fill="rgba(205,199,251,0.58)"/>
    </g>
    <g id="Сгруппировать_48" data-name="Сгруппировать 48" transform="translate(-79 -141)">
      <circle id="Эллипс_4-45" data-name="Эллипс 4" cx="12" cy="12" r="12" transform="translate(431 317)" fill="rgba(205,199,251,0.58)"/>
    </g>
    <g id="Сгруппировать_49" data-name="Сгруппировать 49" transform="translate(-431 -97)">
      <circle id="Эллипс_4-46" data-name="Эллипс 4" cx="12" cy="12" r="12" transform="translate(431 317)" fill="rgba(205,199,251,0.58)"/>
    </g>
    <g id="Сгруппировать_50" data-name="Сгруппировать 50" transform="translate(-387 -97)">
      <circle id="Эллипс_4-47" data-name="Эллипс 4" cx="12" cy="12" r="12" transform="translate(431 317)" fill="rgba(205,199,251,0.58)"/>
    </g>
    <g id="Сгруппировать_51" data-name="Сгруппировать 51" transform="translate(-343 -97)">
      <circle id="Эллипс_4-48" data-name="Эллипс 4" cx="12" cy="12" r="12" transform="translate(431 317)" fill="rgba(205,199,251,0.58)"/>
    </g>
    <g id="Сгруппировать_52" data-name="Сгруппировать 52" transform="translate(-299 -97)">
      <circle id="Эллипс_4-49" data-name="Эллипс 4" cx="12" cy="12" r="12" transform="translate(431 317)" fill="rgba(205,199,251,0.58)"/>
    </g>
    <g id="Сгруппировать_53" data-name="Сгруппировать 53" transform="translate(-255 -97)">
      <circle id="Эллипс_4-50" data-name="Эллипс 4" cx="12" cy="12" r="12" transform="translate(431 317)" fill="rgba(205,199,251,0.58)"/>
    </g>
    <g id="Сгруппировать_54" data-name="Сгруппировать 54" transform="translate(-211 -97)">
      <circle id="Эллипс_4-51" data-name="Эллипс 4" cx="12" cy="12" r="12" transform="translate(431 317)" fill="rgba(205,199,251,0.58)"/>
    </g>
    <g id="Сгруппировать_55" data-name="Сгруппировать 55" transform="translate(-167 -97)">
      <circle id="Эллипс_4-52" data-name="Эллипс 4" cx="12" cy="12" r="12" transform="translate(431 317)" fill="rgba(205,199,251,0.58)"/>
    </g>
    <g id="Сгруппировать_56" data-name="Сгруппировать 56" transform="translate(-123 -97)">
      <circle id="Эллипс_4-53" data-name="Эллипс 4" cx="12" cy="12" r="12" transform="translate(431 317)" fill="rgba(205,199,251,0.58)"/>
    </g>
    <g id="Сгруппировать_57" data-name="Сгруппировать 57" transform="translate(-79 -97)">
      <circle id="Эллипс_4-54" data-name="Эллипс 4" cx="12" cy="12" r="12" transform="translate(431 317)" fill="rgba(205,199,251,0.58)"/>
    </g>
    <g id="Сгруппировать_58" data-name="Сгруппировать 58" transform="translate(-431 -53)">
      <circle id="Эллипс_4-55" data-name="Эллипс 4" cx="12" cy="12" r="12" transform="translate(431 317)" fill="rgba(205,199,251,0.58)"/>
    </g>
    <g id="Сгруппировать_59" data-name="Сгруппировать 59" transform="translate(-387 -53)">
      <circle id="Эллипс_4-56" data-name="Эллипс 4" cx="12" cy="12" r="12" transform="translate(431 317)" fill="rgba(205,199,251,0.58)"/>
    </g>
    <g id="Сгруппировать_60" data-name="Сгруппировать 60" transform="translate(-343 -53)">
      <circle id="Эллипс_4-57" data-name="Эллипс 4" cx="12" cy="12" r="12" transform="translate(431 317)" fill="rgba(205,199,251,0.58)"/>
    </g>
    <g id="Сгруппировать_61" data-name="Сгруппировать 61" transform="translate(-299 -53)">
      <circle id="Эллипс_4-58" data-name="Эллипс 4" cx="12" cy="12" r="12" transform="translate(431 317)" fill="rgba(205,199,251,0.58)"/>
    </g>
    <g id="Сгруппировать_62" data-name="Сгруппировать 62" transform="translate(-255 -53)">
      <circle id="Эллипс_4-59" data-name="Эллипс 4" cx="12" cy="12" r="12" transform="translate(431 317)" fill="rgba(205,199,251,0.58)"/>
    </g>
    <g id="Сгруппировать_63" data-name="Сгруппировать 63" transform="translate(-211 -53)">
      <circle id="Эллипс_4-60" data-name="Эллипс 4" cx="12" cy="12" r="12" transform="translate(431 317)" fill="rgba(205,199,251,0.58)"/>
    </g>
    <g id="Сгруппировать_64" data-name="Сгруппировать 64" transform="translate(-167 -53)">
      <circle id="Эллипс_4-61" data-name="Эллипс 4" cx="12" cy="12" r="12" transform="translate(431 317)" fill="rgba(205,199,251,0.58)"/>
    </g>
    <g id="Сгруппировать_65" data-name="Сгруппировать 65" transform="translate(-123 -53)">
      <circle id="Эллипс_4-62" data-name="Эллипс 4" cx="12" cy="12" r="12" transform="translate(431 317)" fill="rgba(205,199,251,0.58)"/>
    </g>
    <g id="Сгруппировать_66" data-name="Сгруппировать 66" transform="translate(-79 -53)">
      <circle id="Эллипс_4-63" data-name="Эллипс 4" cx="12" cy="12" r="12" transform="translate(431 317)" fill="rgba(205,199,251,0.58)"/>
    </g>
    <g id="Сгруппировать_67" data-name="Сгруппировать 67" transform="translate(-431 -9)">
      <circle id="Эллипс_4-64" data-name="Эллипс 4" cx="12" cy="12" r="12" transform="translate(431 317)" fill="rgba(205,199,251,0.58)"/>
    </g>
    <g id="Сгруппировать_68" data-name="Сгруппировать 68" transform="translate(-387 -9)">
      <circle id="Эллипс_4-65" data-name="Эллипс 4" cx="12" cy="12" r="12" transform="translate(431 317)" fill="rgba(205,199,251,0.58)"/>
    </g>
    <g id="Сгруппировать_69" data-name="Сгруппировать 69" transform="translate(-343 -9)">
      <circle id="Эллипс_4-66" data-name="Эллипс 4" cx="12" cy="12" r="12" transform="translate(431 317)" fill="rgba(205,199,251,0.58)"/>
    </g>
    <g id="Сгруппировать_70" data-name="Сгруппировать 70" transform="translate(-299 -9)">
      <circle id="Эллипс_4-67" data-name="Эллипс 4" cx="12" cy="12" r="12" transform="translate(431 317)" fill="rgba(205,199,251,0.58)"/>
    </g>
    <g id="Сгруппировать_71" data-name="Сгруппировать 71" transform="translate(-255 -9)">
      <circle id="Эллипс_4-68" data-name="Эллипс 4" cx="12" cy="12" r="12" transform="translate(431 317)" fill="rgba(205,199,251,0.58)"/>
    </g>
    <g id="Сгруппировать_72" data-name="Сгруппировать 72" transform="translate(-211 -9)">
      <circle id="Эллипс_4-69" data-name="Эллипс 4" cx="12" cy="12" r="12" transform="translate(431 317)" fill="rgba(205,199,251,0.58)"/>
    </g>
    <g id="Сгруппировать_73" data-name="Сгруппировать 73" transform="translate(-167 -9)">
      <circle id="Эллипс_4-70" data-name="Эллипс 4" cx="12" cy="12" r="12" transform="translate(431 317)" fill="rgba(205,199,251,0.58)"/>
    </g>
    <g id="Сгруппировать_74" data-name="Сгруппировать 74" transform="translate(-123 -9)">
      <circle id="Эллипс_4-71" data-name="Эллипс 4" cx="12" cy="12" r="12" transform="translate(431 317)" fill="rgba(205,199,251,0.58)"/>
    </g>
    <g id="Сгруппировать_75" data-name="Сгруппировать 75" transform="translate(-79 -9)">
      <circle id="Эллипс_4-72" data-name="Эллипс 4" cx="12" cy="12" r="12" transform="translate(431 317)" fill="rgba(205,199,251,0.58)"/>
    </g>
    <g id="Сгруппировать_76" data-name="Сгруппировать 76" transform="translate(-431 35)">
      <circle id="Эллипс_4-73" data-name="Эллипс 4" cx="12" cy="12" r="12" transform="translate(431 317)" fill="rgba(205,199,251,0.58)"/>
    </g>
    <g id="Сгруппировать_77" data-name="Сгруппировать 77" transform="translate(-387 35)">
      <circle id="Эллипс_4-74" data-name="Эллипс 4" cx="12" cy="12" r="12" transform="translate(431 317)" fill="rgba(205,199,251,0.58)"/>
    </g>
    <g id="Сгруппировать_78" data-name="Сгруппировать 78" transform="translate(-343 35)">
      <circle id="Эллипс_4-75" data-name="Эллипс 4" cx="12" cy="12" r="12" transform="translate(431 317)" fill="rgba(205,199,251,0.58)"/>
    </g>
    <g id="Сгруппировать_79" data-name="Сгруппировать 79" transform="translate(-299 35)">
      <circle id="Эллипс_4-76" data-name="Эллипс 4" cx="12" cy="12" r="12" transform="translate(431 317)" fill="rgba(205,199,251,0.58)"/>
    </g>
    <g id="Сгруппировать_80" data-name="Сгруппировать 80" transform="translate(-255 35)">
      <circle id="Эллипс_4-77" data-name="Эллипс 4" cx="12" cy="12" r="12" transform="translate(431 317)" fill="rgba(205,199,251,0.58)"/>
    </g>
    <g id="Сгруппировать_81" data-name="Сгруппировать 81" transform="translate(-211 35)">
      <circle id="Эллипс_4-78" data-name="Эллипс 4" cx="12" cy="12" r="12" transform="translate(431 317)" fill="rgba(205,199,251,0.58)"/>
    </g>
    <g id="Сгруппировать_82" data-name="Сгруппировать 82" transform="translate(-167 35)">
      <circle id="Эллипс_4-79" data-name="Эллипс 4" cx="12" cy="12" r="12" transform="translate(431 317)" fill="rgba(205,199,251,0.58)"/>
    </g>
    <g id="Сгруппировать_83" data-name="Сгруппировать 83" transform="translate(-123 35)">
      <circle id="Эллипс_4-80" data-name="Эллипс 4" cx="12" cy="12" r="12" transform="translate(431 317)" fill="rgba(205,199,251,0.58)"/>
    </g>
    <g id="Сгруппировать_84" data-name="Сгруппировать 84" transform="translate(-79 35)">
      <circle id="Эллипс_4-81" data-name="Эллипс 4" cx="12" cy="12" r="12" transform="translate(431 317)" fill="rgba(205,199,251,0.58)"/>
    </g>
  </g>
</svg>
